HIERARCHY
ROOT Pelvis
{
	OFFSET 0.000000 0.000000 0.000000
	CHANNELS 6 Xposition Yposition Zposition Xrotation Yrotation Zrotation
	JOINT LeftUpLeg_virtual
	{
		OFFSET 0.000000 0.000000 0.000000
		CHANNELS 3 Xrotation Yrotation Zrotation
		JOINT LeftUpLeg
		{
			OFFSET 18.735201 -5.666702 -4.541200
			CHANNELS 3 Xrotation Yrotation Zrotation
			JOINT LeftLeg
			{
				OFFSET -0.021200 -31.938179 0.493100
				CHANNELS 3 Xrotation Yrotation Zrotation
				JOINT LeftFoot
				{
					OFFSET 0.021200 -31.938179 -4.336299
					CHANNELS 3 Xrotation Yrotation Zrotation
					JOINT LeftToeBase
					{
						OFFSET 0.943001 -26.722000 15.023500
						CHANNELS 3 Xrotation Yrotation Zrotation
						End Site
						{
							OFFSET 0 0 0
						}
					}
				}
			}
		}
	}
	JOINT RightUpLeg_virtual
	{
		OFFSET 0.000000 0.000000 0.000000
		CHANNELS 3 Xrotation Yrotation Zrotation
		JOINT RightUpLeg
		{
			OFFSET -18.735201 -5.666702 -4.541200
			CHANNELS 3 Xrotation Yrotation Zrotation
			JOINT RightLeg
			{
				OFFSET 0.018946 -31.938133 0.493100
				CHANNELS 3 Xrotation Yrotation Zrotation
				JOINT RightFoot
				{
					OFFSET -0.018946 -31.938126 -4.336299
					CHANNELS 3 Xrotation Yrotation Zrotation
					JOINT RightToeBase
					{
						OFFSET -0.943001 -26.722004 15.023500
						CHANNELS 3 Xrotation Yrotation Zrotation
						End Site
						{
							OFFSET 0 0 0
						}
					}
				}
			}
		}
	}
	JOINT Hips_virtual
	{
		OFFSET 0.000000 0.000000 0.000000
		CHANNELS 3 Xrotation Yrotation Zrotation
		JOINT Hips
		{
			OFFSET -0.000000 -0.000000 -0.000000
			CHANNELS 3 Xrotation Yrotation Zrotation
			JOINT Spine
			{
				OFFSET 0.000000 10.199997 -0.299500
				CHANNELS 3 Xrotation Yrotation Zrotation
				JOINT Spine1
				{
					OFFSET 0.000000 11.900002 -1.516600
					CHANNELS 3 Xrotation Yrotation Zrotation
					JOINT Spine2
					{
						OFFSET 0.000000 13.600006 -2.842500
						CHANNELS 3 Xrotation Yrotation Zrotation
						JOINT Neck_virtual
						{
							OFFSET 0.000000 0.000000 0.000000
							CHANNELS 3 Xrotation Yrotation Zrotation
							JOINT Neck
							{
								OFFSET 0.000000 9.624100 -2.890100
								CHANNELS 3 Xrotation Yrotation Zrotation
								JOINT Head
								{
									OFFSET 0.000000 14.068802 -1.351900
									CHANNELS 3 Xrotation Yrotation Zrotation
									End Site
									{
										OFFSET 0 0 0
									}
								}
							}
						}
						JOINT LeftShoulder_virtual
						{
							OFFSET 0.000000 0.000000 0.000000
							CHANNELS 3 Xrotation Yrotation Zrotation
							JOINT LeftShoulder
							{
								OFFSET 15.263000 10.923401 -0.547700
								CHANNELS 3 Xrotation Yrotation Zrotation
								JOINT LeftArm
								{
									OFFSET 25.438599 -2.830597 -13.032500
									CHANNELS 3 Xrotation Yrotation Zrotation
									JOINT LeftForeArm
									{
										OFFSET 29.960503 0.000000 0.000000
										CHANNELS 3 Xrotation Yrotation Zrotation
										JOINT LeftHand
										{
											OFFSET 27.849251 0.000000 0.000000
											CHANNELS 3 Xrotation Yrotation Zrotation
											End Site
											{
												OFFSET 0 0 0
											}
										}
									}
								}
							}
						}
						JOINT RightShoulder_virtual
						{
							OFFSET 0.000000 0.000000 0.000000
							CHANNELS 3 Xrotation Yrotation Zrotation
							JOINT RightShoulder
							{
								OFFSET -15.263000 10.923401 -0.547700
								CHANNELS 3 Xrotation Yrotation Zrotation
								JOINT RightArm
								{
									OFFSET -25.438599 -2.830597 -13.032500
									CHANNELS 3 Xrotation Yrotation Zrotation
									JOINT RightForeArm
									{
										OFFSET -29.960503 0.000000 0.000000
										CHANNELS 3 Xrotation Yrotation Zrotation
										JOINT RightHand
										{
											OFFSET -27.849251 0.000000 0.000000
											CHANNELS 3 Xrotation Yrotation Zrotation
											End Site
											{
												OFFSET 0 0 0
											}
										}
									}
								}
							}
						}
					}
				}
			}
		}
	}
}
MOTION
Frames: 9
Frame Time: 0.03333333
-3.526491 78.410332 3.057365 0.000000 0.000000 0.000000 11.660460 -49.374420 11.268420 -69.006911 20.606624 47.788156 51.256543 -22.124332 3.397176 2.960996 1.488329 -15.125418 0.000000 0.000000 0.000000 11.660460 -49.374420 11.268420 -33.116210 3.851243 -30.939838 58.819267 4.953836 -6.674889 -30.772652 -6.442853 30.151966 0.000000 0.000000 0.000000 11.660460 -49.374420 11.268420 0.000000 -0.000002 0.000000 10.972580 2.720467 -2.032878 6.100710 5.566507 -4.284673 0.000000 0.000000 0.000000 -5.786924 6.328169 -3.046189 0.458789 1.873389 -0.022554 0.000000 0.000000 0.000000 -5.786924 6.328169 -3.046189 -1.875345 -16.181702 -2.870489 -10.644669 2.164703 -45.510595 -22.862385 -25.786271 -15.871726 0.000000 0.000000 0.000000 -5.786924 6.328169 -3.046189 -5.074598 24.343692 1.482627 6.642387 -34.733701 57.610487 -21.031976 44.833847 19.961653 0.000000 0.000000 0.000000 
-3.627837 78.087959 3.135248 0.000000 0.000000 0.000000 17.318588 -51.133593 16.004605 -70.071949 19.907548 47.869237 52.089362 -21.242177 3.529868 1.401865 3.758047 -16.545841 0.000000 0.000000 0.000000 17.318588 -51.133593 16.004605 -37.838278 5.986995 -30.246171 58.951677 5.176583 -6.693963 -29.734692 -5.485258 30.303480 0.000000 0.000000 0.000000 17.318588 -51.133593 16.004605 0.000000 -0.000002 0.000000 6.599779 3.126869 -1.419487 4.905271 6.087639 -4.052454 0.000000 0.000000 0.000000 -6.993465 6.770112 -2.740921 -0.197865 0.754960 0.007320 0.000000 0.000000 0.000000 -6.993465 6.770112 -2.740921 -2.019446 -12.678709 -1.080113 -6.222603 2.408193 -48.336071 -21.610058 -26.352738 -14.989767 0.000000 0.000000 0.000000 -6.993465 6.770112 -2.740921 -5.292524 23.824658 2.533291 6.218722 -35.596132 55.188116 -22.397614 43.628223 20.943862 0.000000 0.000000 0.000000 
-3.877827 77.650688 3.559978 0.000000 0.000000 0.000000 23.026629 -51.121965 21.226256 -71.612266 19.802067 46.996056 52.695316 -20.702881 3.590410 0.128954 5.502557 -17.377825 0.000000 0.000000 0.000000 23.026629 -51.121965 21.226256 -41.337360 7.974258 -30.286500 59.147034 4.954184 -6.744924 -29.548778 -5.653656 30.876034 0.000000 0.000000 0.000000 23.026629 -51.121965 21.226256 0.000000 -0.000003 0.000000 1.926467 3.130160 -0.627471 3.783558 5.915591 -3.917738 0.000000 0.000000 0.000000 -8.078003 6.563213 -2.613886 -1.061205 -0.849711 0.385017 0.000000 0.000000 0.000000 -8.078003 6.563213 -2.613886 -2.338701 -9.267080 0.477312 0.012358 1.464316 -49.562233 -21.267394 -30.655706 -14.789832 0.000000 0.000000 0.000000 -8.078003 6.563213 -2.613886 -5.306080 22.788511 3.827939 7.662526 -36.585676 53.035524 -27.334610 45.566501 26.031878 0.000000 0.000000 0.000000 
-4.275518 77.237709 4.191750 0.000000 0.000000 0.000000 27.352073 -49.706640 25.517621 -73.106076 20.324765 45.473200 52.726677 -20.545890 3.567891 -0.670028 6.534382 -17.690583 0.000000 0.000000 0.000000 27.352073 -49.706640 25.517621 -43.214494 9.568789 -31.069021 59.449277 4.452056 -6.785802 -30.164663 -6.702826 31.599559 0.000000 0.000000 0.000000 27.352073 -49.706640 25.517621 0.000000 0.000000 0.000000 -1.832568 2.686972 0.055581 3.102664 5.088903 -3.978474 0.000000 0.000000 0.000000 -8.666746 5.787711 -2.761520 -1.735254 -2.562421 1.384411 0.000000 0.000000 0.000000 -8.666746 5.787711 -2.761520 -2.777914 -7.561340 3.202649 6.336161 0.679713 -51.194283 -20.920400 -35.100909 -14.588092 0.000000 0.000000 0.000000 -8.666746 5.787711 -2.761520 -5.506174 20.977700 6.822259 8.426892 -38.300819 48.596386 -35.680082 50.798924 35.841203 0.000000 0.000000 0.000000 
-4.784855 76.922295 4.936508 0.000000 0.000000 0.000000 30.280168 -47.662440 28.545589 -74.318305 21.093893 43.768368 52.344309 -20.646941 3.495432 -1.168883 7.074191 -17.739629 0.000000 0.000000 0.000000 30.280168 -47.662440 28.545589 -43.804523 10.553322 -32.182397 59.548171 3.870670 -6.776850 -31.142647 -8.150180 32.248386 0.000000 0.000000 0.000000 30.280168 -47.662440 28.545589 0.000000 -0.000001 0.000000 -3.508287 1.759520 0.661198 3.307903 3.506669 -3.997016 0.000000 0.000000 0.000000 -8.328921 4.248534 -2.971354 -2.442942 -3.774120 2.210484 0.000000 0.000000 0.000000 -8.328921 4.248534 -2.971354 -3.066419 -7.807672 4.730873 10.311692 1.423226 -52.599444 -19.446785 -36.074173 -13.613603 0.000000 0.000000 0.000000 -8.328921 4.248534 -2.971354 -5.187631 18.961575 9.196354 7.063283 -38.893542 43.103934 -47.779383 56.035815 50.040568 0.000000 0.000000 0.000000 
-5.354086 76.709450 5.674124 0.000000 0.000000 0.000000 32.573384 -45.524116 31.057451 -75.054736 22.071425 41.952688 51.457634 -20.773404 3.389154 -1.461426 7.506425 -17.845539 0.000000 0.000000 0.000000 32.573384 -45.524116 31.057451 -43.974021 11.254856 -33.415895 59.476072 3.374469 -6.731352 -32.134660 -9.623111 32.729648 0.000000 0.000000 0.000000 32.573384 -45.524116 31.057451 0.000000 0.000000 0.000000 -2.525621 0.438638 1.187478 4.409994 1.210518 -3.819910 0.000000 0.000000 0.000000 -7.099655 1.952047 -3.048248 -3.181144 -4.314926 2.586201 0.000000 0.000000 0.000000 -7.099655 1.952047 -3.048248 -2.432252 -9.071561 3.582094 8.625664 7.233657 -52.983529 -16.855510 -33.585119 -12.183756 0.000000 0.000000 0.000000 -7.099655 1.952047 -3.048248 -4.436295 16.815606 10.916737 2.867439 -37.919356 36.724759 -62.960383 60.678328 67.613409 0.000000 0.000000 0.000000 
-6.295031 76.570518 6.438457 0.000000 0.000000 0.000000 33.761270 -43.535728 32.477474 -75.026425 22.941767 40.498917 50.320111 -21.143318 3.273579 -1.718302 7.704962 -18.169613 0.000000 0.000000 0.000000 33.761270 -43.535728 32.477474 -43.164326 11.133342 -34.471555 59.369999 2.931517 -6.701046 -33.614868 -11.071907 32.851864 0.000000 0.000000 0.000000 33.761270 -43.535728 32.477474 0.000000 -0.000001 0.000001 0.436476 -1.028849 1.696498 6.128176 -1.531154 -3.628608 0.000000 0.000000 0.000000 -5.294944 -0.811234 -3.075680 -3.600682 -4.179366 2.746920 0.000000 0.000000 0.000000 -5.294944 -0.811234 -3.075680 -0.591743 -9.121286 1.921980 1.513775 16.251822 -51.344605 -13.857607 -28.954716 -10.616519 0.000000 0.000000 0.000000 -5.294944 -0.811234 -3.075680 -3.519762 14.337030 12.950349 -3.555359 -34.934874 30.547201 -76.330144 63.075130 82.817355 0.000000 0.000000 0.000000 
-7.662718 76.415298 7.178328 0.000000 0.000000 0.000000 34.258948 -42.147342 33.245734 -74.150234 23.527586 39.693726 49.275304 -21.717891 3.167559 -2.232195 7.992190 -18.905964 0.000000 0.000000 0.000000 34.258948 -42.147342 33.245734 -41.866310 10.416928 -35.170188 59.449584 2.643822 -6.725680 -35.578817 -12.163910 32.597201 0.000000 0.000000 0.000000 34.258948 -42.147342 33.245734 0.000000 0.000002 0.000000 4.480335 -2.592178 2.255772 8.132115 -4.743740 -3.173969 0.000000 0.000000 0.000000 -3.269355 -4.072399 -2.787218 -3.609119 -3.546937 2.809091 0.000000 0.000000 0.000000 -3.269355 -4.072399 -2.787218 2.129484 -12.995597 0.097870 -9.083897 30.663998 -45.714084 -10.864691 -23.322046 -9.076679 0.000000 0.000000 0.000000 -3.269355 -4.072399 -2.787218 -2.526040 12.469829 14.923432 -9.852912 -29.672729 27.190864 -85.195402 64.696071 92.231979 0.000000 0.000000 0.000000 
-9.222935 76.248375 7.764915 0.000000 0.000000 0.000000 35.046080 -41.603259 33.799078 -73.167732 23.375115 39.890101 48.686674 -22.307495 3.111787 -3.093799 8.652280 -20.037668 0.000000 0.000000 0.000000 35.046080 -41.603259 33.799078 -41.021638 9.427320 -34.929383 59.353046 2.472519 -6.780250 -37.352604 -12.572055 32.037303 0.000000 0.000000 0.000000 35.046080 -41.603259 33.799078 -0.000001 -0.000001 -0.000001 8.787890 -4.083897 2.885693 10.629016 -7.985797 -2.385282 0.000000 0.000000 0.000000 -0.790392 -7.362274 -2.055565 -3.396844 -2.593434 2.145687 0.000000 0.000000 0.000000 -0.790392 -7.362274 -2.055565 4.756250 -15.894788 -1.244015 -16.882206 38.629016 -37.688847 -8.098499 -17.855682 -7.600332 0.000000 0.000000 0.000000 -0.790392 -7.362274 -2.055565 -1.565902 10.918286 17.212294 -15.854093 -21.529771 26.362348 -86.261615 67.025432 92.302801 0.000000 0.000000 0.000000 
